#!OML:ASF F:\VICON\USERDATA\INSTALL\rory3\rory3.ASF
:FULLY-SPECIFIED
:DEGREES
74
root 0.6290873854557502 17.80129212351941 24.398937036489173 -2.2984655559964144 -0.03476695230138005 1.4827707689374598
lfemur 3.283269064494762 -3.340360695706006 -26.812149650989916
ltibia 19.8934872653725
lfoot -8.083298435210216 -2.121143562535109
ltoes -7.443959296829234
rfemur -28.742125503520494 3.410842585925037 19.252942808476295
rtibia 40.65448295364069
rfoot -7.362213955487519 -9.562489748232728
rtoes 3.6153261032721726
lowerback 1.0 -0.7016490205165284 -2.4589955398721
upperback 0.747785735869553 -1.1474125771056891 1.1922258411816489
thorax -5.133749270103126 -0.5071773425317883 3.126428802962038
lowerneck -16.126497322855602 -2.732836813821272 -2.621114710935098
upperneck 20.068997287551202 -3.515663477338875 1.5815462491608712
head 9.018904698619131 -1.6669785333793001 0.46890817578753746
lclavicle -9.289956716407351e-16 -2.6366455465731697e-15
lhumerus -24.476930390308375 -2.2869854620278565 81.74565008232352
lradius 29.549921197104076
lwrist 6.454204358457222
lhand -26.815665688381138 25.435116772878594
lfingers nan
lthumb -0.31333252264609956 55.36019367619833
rclavicle -8.419140252299274e-16 -2.4521563011156456e-15
rhumerus -31.945506685403686 -23.167186678381338 -76.88573187443835
rradius 21.901196401836135
rwrist 2.5480947211341394
rhand -18.345629203401455 1.0
rfingers nan
rthumb 7.969716223850467 -7.121563092537356
75
root 0.5742699624165013 17.78248358748917 24.937449541287066 -1.704455702093417 0.22453059942647413 1.7051806598387635
lfemur 6.577793067506333 -3.148231040469647 -26.896781404198038
ltibia 17.192232586420996
lfoot -6.029061487754658 -3.3135228123883937
ltoes -9.634348264262089
rfemur -28.17383972055716 6.62059127871882 17.36040503671702
rtibia 28.011880779269212
rfoot -8.195284208095616 -11.272294312793493
rtoes 3.518688511193853
lowerback 1.0 -0.8538072727573824 -2.849988324198788
upperback 0.7659551934560146 -1.3970701225360074 1.2221803432925056
thorax -4.881885076733838 -0.6294416523868898 3.447143297159198
lowerneck -16.21652923654594 -2.710352121098813 -2.609545700962822
upperneck 19.969128721473435 -3.4692237611836636 1.5624522783449721
head 8.996693243393795 -1.6515858602295532 0.466204327450708
lclavicle -1.1509312619644815e-15 -2.8038364568620676e-15
lhumerus -24.037892407273894 -2.2813014044834867 81.72151237905305
lradius 30.268113039962515
lwrist 6.9792617292854775
lhand -27.22231532393575 24.990653935681642
lfingers nan
lthumb -0.6220619994075638 55.01787593776109
rclavicle -1.0592494636725237e-15 -2.6154683429805892e-15
rhumerus -32.639869651091345 -23.690904969484933 -76.57011923004906
rradius 21.824843946699886
rwrist 2.882495953938827
rhand -18.432335057682927 1.0
rfingers nan
rthumb 7.906197292875145 -7.111130559077051
76
root 0.5029551849202522 17.743454975907216 25.633017150979548 -1.2367265120949977 0.5053860836772492 1.7907165613334572
lfemur 9.310180258728552 -3.5025609508025557 -26.799337619050306
ltibia 16.26465679205108
lfoot -5.039674503840532 -4.286168554714444
ltoes -11.415792679864676
rfemur -27.053653057065418 9.273386944750975 15.857622723463605
rtibia 19.155520460421243
rfoot -10.737358805993033 -12.847748944772409
rtoes 2.0600428643032576
lowerback 1.0 -0.9877295620890723 -3.1460990379812537
upperback 0.7620023094417149 -1.5805511576204125 1.2780079710695913
thorax -4.660986728519495 -0.715389726269813 3.6887535211229014
lowerneck -16.280315033825637 -2.658442337950061 -2.5809814697673157
upperneck 19.952118271527734 -3.3655341542239414 1.493643906546731
head 9.002631527429983 -1.6185325942985467 0.4514661417517651
lclavicle -1.121750082733641e-15 -2.8054807940291613e-15
lhumerus -23.892108177742728 -2.064538026355369 81.76042862759223
lradius 30.62885273771529
lwrist 7.3556452079676955
lhand -27.818188613837417 24.21546787998634
lfingers nan
lthumb -1.0495416361499423 54.48659609350534
rclavicle -1.1003585504773e-15 -2.664502857402009e-15
rhumerus -33.388292878617186 -24.44042117572402 -76.10456600510433
rradius 21.591087742893805
rwrist 3.489322528245612
rhand -18.501690366461883 1.0
rfingers nan
rthumb 7.852457496172358 -7.087857313495396
77
root 0.430180394860255 17.681849212971617 26.70677492141637 -1.0702106879449287 0.6079645049739597 1.8239042612600298
lfemur 11.60998834549426 -4.137020666790549 -26.56221649888314
ltibia 17.049924143013502
lfoot -4.783256001123364 -5.28559257590506
ltoes -12.14942068834769
rfemur -26.969595363052832 7.407485501637288 17.052220675555667
rtibia 18.158766456901404
rfoot -11.356354167617846 -11.274176523001227
rtoes 0.6118061731837643
lowerback 1.0 -1.0419293358767907 -3.3545614904530865
upperback 0.7131464580070125 -1.6497610250235395 1.3531076427645827
thorax -4.570339584038078 -0.7456204159033493 3.793172379542084
lowerneck -16.308290982821756 -2.5778066197703264 -2.5357308180962477
upperneck 20.032306030859743 -3.2028359578403993 1.3751322428425887
head 9.04386948494346 -1.5676236127507006 0.4254728791165879
lclavicle -1.1101536021315768e-15 -2.779799271882285e-15
lhumerus -24.045142228564867 -1.7186288250983743 81.86663413683569
lradius 30.676982640693286
lwrist 7.5095096201093945
lhand -28.38234786540641 23.459872245939433
lfingers nan
lthumb -1.450951789252656 53.981742786629596
rclavicle -1.1193703973567543e-15 -2.662513171779896e-15
rhumerus -34.17030811427835 -25.405992827161697 -75.41858955164
rradius 21.187109227781537
rwrist 4.376475111380736
rhand -18.552235101793094 1.0
rfingers nan
rthumb 7.783918566905314 -7.111146278058395
78
root 0.3512807756990735 17.613259985790723 27.52560544192464 -1.2831127386141532 0.4777421370766657 1.568048056778868
lfemur 13.118637253364033 -5.16226010546147 -26.162375259737466
ltibia 19.953294190371224
lfoot -3.991229651131074 -5.688659358150071
ltoes -12.250802024550811
rfemur -27.832269545864182 5.495441465124404 19.06696684612777
rtibia 22.89319916036733
rfoot -10.70105634962032 -9.091612267167958
rtoes -0.7700971816560784
lowerback 1.0 -1.0359436425825865 -3.3749941490301545
upperback 0.7170034654438728 -1.6181947217058457 1.4440437165637898
thorax -4.482613463896906 -0.7384331885213582 3.7132241589486528
lowerneck -16.31985152138594 -2.48330228831667 -2.4875608160870937
upperneck 20.196936649911834 -3.01297160336495 1.2252098547189039
head 9.118879076661356 -1.5089032948084007 0.3900214181051717
lclavicle -1.1416264410189147e-15 -2.823749565346094e-15
lhumerus -24.473075857205654 -1.3056281555448743 82.03390863334589
lradius 30.47559407507237
lwrist 7.383331816205841
lhand -28.63139478457782 23.093637653913635
lfingers nan
lthumb -1.6134602074011672 53.76506111606201
rclavicle -1.1986572415784623e-15 -2.742923104812388e-15
rhumerus -34.94859784681394 -26.539256858549773 -74.50834436883575
rradius 20.627987320162354
rwrist 5.477212160343716
rhand -18.559335108920774 1.0
rfingers nan
rthumb 7.746235154779438 -7.148294568441397
